<?xml version="1.0" encoding="UTF-8" standalone="no"?>
<!DOCTYPE svg PUBLIC "-//W3C//DTD SVG 1.1//EN"
 "http://www.w3.org/Graphics/SVG/1.1/DTD/svg11.dtd">
<!-- Generated by graphviz version 2.40.1 (0)
 -->
<!-- Title: workflow Pages: 1 -->
<svg width="601pt" height="646pt"
 viewBox="0.00 0.00 600.80 645.80" xmlns="http://www.w3.org/2000/svg" xmlns:xlink="http://www.w3.org/1999/xlink">
<g id="graph0" class="graph" transform="scale(1 1) rotate(0) translate(14.4 631.4)">
<title>workflow</title>
<polygon fill="#ffffff" stroke="transparent" points="-14.4,14.4 -14.4,-631.4 586.4,-631.4 586.4,14.4 -14.4,14.4"/>
<!-- A -->
<g id="node1" class="node">
<title>A</title>
<path fill="#f5f7ff" stroke="#3559a6" d="M377.5,-617C377.5,-617 281.5,-617 281.5,-617 275.5,-617 269.5,-611 269.5,-605 269.5,-605 269.5,-593 269.5,-593 269.5,-587 275.5,-581 281.5,-581 281.5,-581 377.5,-581 377.5,-581 383.5,-581 389.5,-587 389.5,-593 389.5,-593 389.5,-605 389.5,-605 389.5,-611 383.5,-617 377.5,-617"/>
<text text-anchor="middle" x="329.5" y="-602.2" font-family="Helvetica,sans-Serif" font-size="11.00" fill="#000000">Raw single&#45;end</text>
<text text-anchor="middle" x="329.5" y="-590.2" font-family="Helvetica,sans-Serif" font-size="11.00" fill="#000000">smallRNA FASTQ</text>
</g>
<!-- B -->
<g id="node2" class="node">
<title>B</title>
<path fill="#f5f7ff" stroke="#3559a6" d="M370.5,-534C370.5,-534 288.5,-534 288.5,-534 282.5,-534 276.5,-528 276.5,-522 276.5,-522 276.5,-510 276.5,-510 276.5,-504 282.5,-498 288.5,-498 288.5,-498 370.5,-498 370.5,-498 376.5,-498 382.5,-504 382.5,-510 382.5,-510 382.5,-522 382.5,-522 382.5,-528 376.5,-534 370.5,-534"/>
<text text-anchor="middle" x="329.5" y="-513.2" font-family="Helvetica,sans-Serif" font-size="11.00" fill="#000000">Preprocessing</text>
</g>
<!-- A&#45;&gt;B -->
<g id="edge1" class="edge">
<title>A&#45;&gt;B</title>
<path fill="none" stroke="#4f5b7a" stroke-width="1.2" d="M329.5,-580.9902C329.5,-569.7562 329.5,-555.0979 329.5,-542.5463"/>
<polygon fill="#4f5b7a" stroke="#4f5b7a" stroke-width="1.2" points="332.3001,-542.2612 329.5,-534.2612 326.7001,-542.2613 332.3001,-542.2612"/>
</g>
<!-- C -->
<g id="node3" class="node">
<title>C</title>
<path fill="#f5f7ff" stroke="#3559a6" d="M373,-451C373,-451 286,-451 286,-451 280,-451 274,-445 274,-439 274,-439 274,-427 274,-427 274,-421 280,-415 286,-415 286,-415 373,-415 373,-415 379,-415 385,-421 385,-427 385,-427 385,-439 385,-439 385,-445 379,-451 373,-451"/>
<text text-anchor="middle" x="329.5" y="-436.2" font-family="Helvetica,sans-Serif" font-size="11.00" fill="#000000">fastp trimming</text>
<text text-anchor="middle" x="329.5" y="-424.2" font-family="Helvetica,sans-Serif" font-size="11.00" fill="#000000">and FastQC</text>
</g>
<!-- B&#45;&gt;C -->
<g id="edge2" class="edge">
<title>B&#45;&gt;C</title>
<path fill="none" stroke="#4f5b7a" stroke-width="1.2" d="M329.5,-497.9902C329.5,-486.7562 329.5,-472.0979 329.5,-459.5463"/>
<polygon fill="#4f5b7a" stroke="#4f5b7a" stroke-width="1.2" points="332.3001,-459.2612 329.5,-451.2612 326.7001,-459.2613 332.3001,-459.2612"/>
</g>
<!-- D -->
<g id="node4" class="node">
<title>D</title>
<path fill="#f5f7ff" stroke="#3559a6" d="M367,-368C367,-368 292,-368 292,-368 286,-368 280,-362 280,-356 280,-356 280,-344 280,-344 280,-338 286,-332 292,-332 292,-332 367,-332 367,-332 373,-332 379,-338 379,-344 379,-344 379,-356 379,-356 379,-362 373,-368 367,-368"/>
<text text-anchor="middle" x="329.5" y="-353.2" font-family="Helvetica,sans-Serif" font-size="11.00" fill="#000000">Host filtering</text>
<text text-anchor="middle" x="329.5" y="-341.2" font-family="Helvetica,sans-Serif" font-size="11.00" fill="#000000">with Bowtie</text>
</g>
<!-- C&#45;&gt;D -->
<g id="edge3" class="edge">
<title>C&#45;&gt;D</title>
<path fill="none" stroke="#4f5b7a" stroke-width="1.2" d="M329.5,-414.9902C329.5,-403.7562 329.5,-389.0979 329.5,-376.5463"/>
<polygon fill="#4f5b7a" stroke="#4f5b7a" stroke-width="1.2" points="332.3001,-376.2612 329.5,-368.2612 326.7001,-376.2613 332.3001,-376.2612"/>
</g>
<!-- E -->
<g id="node5" class="node">
<title>E</title>
<path fill="#f5f7ff" stroke="#3559a6" d="M516,-285C516,-285 453,-285 453,-285 447,-285 441,-279 441,-273 441,-273 441,-261 441,-261 441,-255 447,-249 453,-249 453,-249 516,-249 516,-249 522,-249 528,-255 528,-261 528,-261 528,-273 528,-273 528,-279 522,-285 516,-285"/>
<text text-anchor="middle" x="484.5" y="-264.2" font-family="Helvetica,sans-Serif" font-size="11.00" fill="#000000">Host reads</text>
</g>
<!-- D&#45;&gt;E -->
<g id="edge4" class="edge">
<title>D&#45;&gt;E</title>
<path fill="none" stroke="#4f5b7a" stroke-width="1.2" d="M363.1327,-331.9902C386.7145,-319.3625 418.3761,-302.4083 443.4477,-288.9828"/>
<polygon fill="#4f5b7a" stroke="#4f5b7a" stroke-width="1.2" points="444.9349,-291.3627 450.6657,-285.1177 442.2913,-286.4259 444.9349,-291.3627"/>
</g>
<!-- F -->
<g id="node6" class="node">
<title>F</title>
<path fill="#f5f7ff" stroke="#3559a6" d="M232,-285C232,-285 143,-285 143,-285 137,-285 131,-279 131,-273 131,-273 131,-261 131,-261 131,-255 137,-249 143,-249 143,-249 232,-249 232,-249 238,-249 244,-255 244,-261 244,-261 244,-273 244,-273 244,-279 238,-285 232,-285"/>
<text text-anchor="middle" x="187.5" y="-264.2" font-family="Helvetica,sans-Serif" font-size="11.00" fill="#000000">Non&#45;host reads</text>
</g>
<!-- D&#45;&gt;F -->
<g id="edge5" class="edge">
<title>D&#45;&gt;F</title>
<path fill="none" stroke="#4f5b7a" stroke-width="1.2" d="M298.6881,-331.9902C277.3432,-319.514 248.7726,-302.8143 225.938,-289.4673"/>
<polygon fill="#4f5b7a" stroke="#4f5b7a" stroke-width="1.2" points="227.0618,-286.881 218.7421,-285.2612 224.2359,-291.7157 227.0618,-286.881"/>
</g>
<!-- G -->
<g id="node7" class="node">
<title>G</title>
<path fill="#f5f7ff" stroke="#3559a6" d="M560,-202C560,-202 427,-202 427,-202 421,-202 415,-196 415,-190 415,-190 415,-178 415,-178 415,-172 421,-166 427,-166 427,-166 560,-166 560,-166 566,-166 572,-172 572,-178 572,-178 572,-190 572,-190 572,-196 566,-202 560,-202"/>
<text text-anchor="middle" x="493.5" y="-187.2" font-family="Helvetica,sans-Serif" font-size="11.00" fill="#000000">Human or host&#45;specific</text>
<text text-anchor="middle" x="493.5" y="-175.2" font-family="Helvetica,sans-Serif" font-size="11.00" fill="#000000">classification</text>
</g>
<!-- E&#45;&gt;G -->
<g id="edge6" class="edge">
<title>E&#45;&gt;G</title>
<path fill="none" stroke="#4f5b7a" stroke-width="1.2" d="M486.4529,-248.9902C487.671,-237.7562 489.2605,-223.0979 490.6215,-210.5463"/>
<polygon fill="#4f5b7a" stroke="#4f5b7a" stroke-width="1.2" points="493.441,-210.5165 491.5199,-202.2612 487.8737,-209.9127 493.441,-210.5165"/>
</g>
<!-- H -->
<g id="node8" class="node">
<title>H</title>
<path fill="#f5f7ff" stroke="#3559a6" d="M87,-202C87,-202 12,-202 12,-202 6,-202 0,-196 0,-190 0,-190 0,-178 0,-178 0,-172 6,-166 12,-166 12,-166 87,-166 87,-166 93,-166 99,-172 99,-178 99,-178 99,-190 99,-190 99,-196 93,-202 87,-202"/>
<text text-anchor="middle" x="49.5" y="-187.2" font-family="Helvetica,sans-Serif" font-size="11.00" fill="#000000">Non&#45;host</text>
<text text-anchor="middle" x="49.5" y="-175.2" font-family="Helvetica,sans-Serif" font-size="11.00" fill="#000000">classification</text>
</g>
<!-- F&#45;&gt;H -->
<g id="edge7" class="edge">
<title>F&#45;&gt;H</title>
<path fill="none" stroke="#4f5b7a" stroke-width="1.2" d="M157.5561,-248.9902C136.8124,-236.514 109.0466,-219.8143 86.8552,-206.4673"/>
<polygon fill="#4f5b7a" stroke="#4f5b7a" stroke-width="1.2" points="88.1608,-203.9851 79.8621,-202.2612 85.2745,-208.784 88.1608,-203.9851"/>
</g>
<!-- I -->
<g id="node9" class="node">
<title>I</title>
<path fill="#f5f7ff" stroke="#3559a6" d="M239.5,-202C239.5,-202 143.5,-202 143.5,-202 137.5,-202 131.5,-196 131.5,-190 131.5,-190 131.5,-178 131.5,-178 131.5,-172 137.5,-166 143.5,-166 143.5,-166 239.5,-166 239.5,-166 245.5,-166 251.5,-172 251.5,-178 251.5,-178 251.5,-190 251.5,-190 251.5,-196 245.5,-202 239.5,-202"/>
<text text-anchor="middle" x="191.5" y="-187.2" font-family="Helvetica,sans-Serif" font-size="11.00" fill="#000000">Assembly&#45;based</text>
<text text-anchor="middle" x="191.5" y="-175.2" font-family="Helvetica,sans-Serif" font-size="11.00" fill="#000000">analysis</text>
</g>
<!-- F&#45;&gt;I -->
<g id="edge8" class="edge">
<title>F&#45;&gt;I</title>
<path fill="none" stroke="#4f5b7a" stroke-width="1.2" d="M188.3679,-248.9902C188.9093,-237.7562 189.6158,-223.0979 190.2207,-210.5463"/>
<polygon fill="#4f5b7a" stroke="#4f5b7a" stroke-width="1.2" points="193.0315,-210.3868 190.6199,-202.2612 187.438,-210.1171 193.0315,-210.3868"/>
</g>
<!-- J -->
<g id="node10" class="node">
<title>J</title>
<path fill="#f5f7ff" stroke="#3559a6" d="M371,-202C371,-202 296,-202 296,-202 290,-202 284,-196 284,-190 284,-190 284,-178 284,-178 284,-172 290,-166 296,-166 296,-166 371,-166 371,-166 377,-166 383,-172 383,-178 383,-178 383,-190 383,-190 383,-196 377,-202 371,-202"/>
<text text-anchor="middle" x="333.5" y="-187.2" font-family="Helvetica,sans-Serif" font-size="11.00" fill="#000000">Novel ncRNA</text>
<text text-anchor="middle" x="333.5" y="-175.2" font-family="Helvetica,sans-Serif" font-size="11.00" fill="#000000">discovery</text>
</g>
<!-- F&#45;&gt;J -->
<g id="edge9" class="edge">
<title>F&#45;&gt;J</title>
<path fill="none" stroke="#4f5b7a" stroke-width="1.2" d="M219.1798,-248.9902C241.2971,-236.4167 270.9597,-219.5537 294.527,-206.1559"/>
<polygon fill="#4f5b7a" stroke="#4f5b7a" stroke-width="1.2" points="296.0593,-208.5057 301.6302,-202.1177 293.2917,-203.6373 296.0593,-208.5057"/>
</g>
<!-- L -->
<g id="node12" class="node">
<title>L</title>
<path fill="#eef9f0" stroke="#2f7d4a" d="M307.5,-119C307.5,-119 217.5,-119 217.5,-119 211.5,-119 205.5,-113 205.5,-107 205.5,-107 205.5,-95 205.5,-95 205.5,-89 211.5,-83 217.5,-83 217.5,-83 307.5,-83 307.5,-83 313.5,-83 319.5,-89 319.5,-95 319.5,-95 319.5,-107 319.5,-107 319.5,-113 313.5,-119 307.5,-119"/>
<text text-anchor="middle" x="262.5" y="-98.2" font-family="Helvetica,sans-Serif" font-size="11.00" fill="#000000">Summary TSVs</text>
</g>
<!-- G&#45;&gt;L -->
<g id="edge12" class="edge">
<title>G&#45;&gt;L</title>
<path fill="none" stroke="#4f5b7a" stroke-width="1.2" d="M443.3764,-165.9902C407.3269,-153.0374 358.6078,-135.5322 320.8144,-121.9528"/>
<polygon fill="#4f5b7a" stroke="#4f5b7a" stroke-width="1.2" points="321.3997,-119.1879 312.9241,-119.1177 319.506,-124.458 321.3997,-119.1879"/>
</g>
<!-- H&#45;&gt;L -->
<g id="edge13" class="edge">
<title>H&#45;&gt;L</title>
<path fill="none" stroke="#4f5b7a" stroke-width="1.2" d="M95.7178,-165.9902C128.8192,-153.0916 173.5054,-135.6787 208.2916,-122.1235"/>
<polygon fill="#4f5b7a" stroke="#4f5b7a" stroke-width="1.2" points="209.5676,-124.6314 216.0051,-119.1177 207.5344,-119.4135 209.5676,-124.6314"/>
</g>
<!-- I&#45;&gt;L -->
<g id="edge14" class="edge">
<title>I&#45;&gt;L</title>
<path fill="none" stroke="#4f5b7a" stroke-width="1.2" d="M206.9059,-165.9902C217.0702,-154.1081 230.5114,-138.3951 241.6312,-125.396"/>
<polygon fill="#4f5b7a" stroke="#4f5b7a" stroke-width="1.2" points="243.8063,-127.1606 246.8789,-119.2612 239.5509,-123.5204 243.8063,-127.1606"/>
</g>
<!-- J&#45;&gt;L -->
<g id="edge15" class="edge">
<title>J&#45;&gt;L</title>
<path fill="none" stroke="#4f5b7a" stroke-width="1.2" d="M318.0941,-165.9902C307.9298,-154.1081 294.4886,-138.3951 283.3688,-125.396"/>
<polygon fill="#4f5b7a" stroke="#4f5b7a" stroke-width="1.2" points="285.4491,-123.5204 278.1211,-119.2612 281.1937,-127.1606 285.4491,-123.5204"/>
</g>
<!-- K -->
<g id="node11" class="node">
<title>K</title>
<path fill="#fff7e8" stroke="#b07a00" d="M384.5,-285C384.5,-285 288.5,-285 288.5,-285 282.5,-285 276.5,-279 276.5,-273 276.5,-273 276.5,-261 276.5,-261 276.5,-255 282.5,-249 288.5,-249 288.5,-249 384.5,-249 384.5,-249 390.5,-249 396.5,-255 396.5,-261 396.5,-261 396.5,-273 396.5,-273 396.5,-279 390.5,-285 384.5,-285"/>
<text text-anchor="middle" x="336.5" y="-270.2" font-family="Helvetica,sans-Serif" font-size="11.00" fill="#000000">Assembly FASTA</text>
<text text-anchor="middle" x="336.5" y="-258.2" font-family="Helvetica,sans-Serif" font-size="11.00" fill="#000000">+ GFF</text>
</g>
<!-- K&#45;&gt;I -->
<g id="edge10" class="edge">
<title>K&#45;&gt;I</title>
<path fill="none" stroke="#4f5b7a" stroke-width="1.2" d="M305.0372,-248.9902C283.0714,-236.4167 253.612,-219.5537 230.206,-206.1559"/>
<polygon fill="#4f5b7a" stroke="#4f5b7a" stroke-width="1.2" points="231.4855,-203.662 223.1515,-202.1177 228.7035,-208.5221 231.4855,-203.662"/>
</g>
<!-- K&#45;&gt;J -->
<g id="edge11" class="edge">
<title>K&#45;&gt;J</title>
<path fill="none" stroke="#4f5b7a" stroke-width="1.2" d="M335.849,-248.9902C335.443,-237.7562 334.9132,-223.0979 334.4595,-210.5463"/>
<polygon fill="#4f5b7a" stroke="#4f5b7a" stroke-width="1.2" points="337.2473,-210.1548 334.16,-202.2612 331.6509,-210.3572 337.2473,-210.1548"/>
</g>
<!-- M -->
<g id="node13" class="node">
<title>M</title>
<path fill="#eef9f0" stroke="#2f7d4a" d="M286,-36C286,-36 239,-36 239,-36 233,-36 227,-30 227,-24 227,-24 227,-12 227,-12 227,-6 233,0 239,0 239,0 286,0 286,0 292,0 298,-6 298,-12 298,-12 298,-24 298,-24 298,-30 292,-36 286,-36"/>
<text text-anchor="middle" x="262.5" y="-15.2" font-family="Helvetica,sans-Serif" font-size="11.00" fill="#000000">MultiQC</text>
</g>
<!-- L&#45;&gt;M -->
<g id="edge16" class="edge">
<title>L&#45;&gt;M</title>
<path fill="none" stroke="#4f5b7a" stroke-width="1.2" d="M262.5,-82.9902C262.5,-71.7562 262.5,-57.0979 262.5,-44.5463"/>
<polygon fill="#4f5b7a" stroke="#4f5b7a" stroke-width="1.2" points="265.3001,-44.2612 262.5,-36.2612 259.7001,-44.2613 265.3001,-44.2612"/>
</g>
</g>
</svg>
